<svg width="22" height="22" viewBox="0 0 22 22" fill="none" xmlns="http://www.w3.org/2000/svg">
<g clip-path="url(#clip0_3_42)">
<path d="M10.987 1.9493C11.3667 1.9493 11.6805 2.23145 11.7302 2.59752L11.737 2.6993L11.7364 15.8833L16.4799 11.1203C16.7722 10.8268 17.2471 10.8258 17.5406 11.118C17.8074 11.3837 17.8325 11.8003 17.6153 12.0944L17.5429 12.1787L11.5189 18.2287C11.4803 18.2674 11.4387 18.301 11.3946 18.3295C11.3814 18.3376 11.3678 18.3458 11.354 18.3535C11.3421 18.3607 11.3298 18.3671 11.3174 18.3732C11.2993 18.3817 11.2806 18.39 11.2615 18.3975C11.2467 18.4036 11.2324 18.4087 11.218 18.4133C11.2001 18.4189 11.181 18.4242 11.1617 18.4288C11.1482 18.4323 11.1351 18.435 11.1221 18.4374C11.1027 18.4407 11.0825 18.4435 11.0622 18.4456C11.0467 18.4473 11.0313 18.4484 11.0159 18.449C11.0066 18.4491 10.9968 18.4493 10.987 18.4493L10.9579 18.4489C10.9432 18.4483 10.9285 18.4473 10.9139 18.4459L10.987 18.4493C10.9397 18.4493 10.8934 18.4449 10.8485 18.4365C10.8377 18.4346 10.8267 18.4323 10.8158 18.4297C10.7932 18.4244 10.7715 18.4182 10.7501 18.4111C10.7396 18.4076 10.7282 18.4036 10.717 18.3993C10.6944 18.3905 10.6729 18.381 10.652 18.3705C10.6421 18.3656 10.6318 18.3602 10.6216 18.3545C10.6049 18.3451 10.5891 18.3354 10.5737 18.3252C10.5628 18.318 10.5514 18.31 10.5402 18.3017L10.5316 18.2952C10.5052 18.275 10.4801 18.2531 10.4567 18.2296L10.456 18.2287L4.43098 12.1787C4.13869 11.8852 4.13967 11.4104 4.43317 11.1181C4.69999 10.8524 5.1167 10.829 5.40986 11.0475L5.49383 11.1203L10.2364 15.8813L10.237 2.6993C10.237 2.28508 10.5728 1.9493 10.987 1.9493Z" fill="white"/>
</g>
<defs>
<clipPath id="clip0_3_42">
<rect width="20.7792" height="20.7792" fill="white" transform="translate(0.441528 0.463196)"/>
</clipPath>
</defs>
</svg>
