<svg width="24" height="24" viewBox="0 0 24 24" fill="none" xmlns="http://www.w3.org/2000/svg">
<g clip-path="url(#clip0_232_157)">
<path d="M19.989 12.1483C19.907 10.5742 19.3596 9.0599 18.416 7.79729C18.1285 8.10692 17.8212 8.39754 17.496 8.66729C16.4969 9.49714 15.3805 10.1745 14.183 10.6773C14.35 11.0273 14.503 11.3663 14.638 11.6863V11.6893C14.6761 11.7787 14.7128 11.8687 14.748 11.9593C16.262 11.7893 17.858 11.8513 19.405 12.0603C19.611 12.0883 19.805 12.1183 19.989 12.1483ZM10.604 4.69829C11.5785 6.07147 12.4772 7.49693 13.296 8.96829C14.519 8.48629 15.53 7.87829 16.344 7.20129C16.6266 6.96843 16.8925 6.71615 17.14 6.44629C15.701 5.23601 13.8803 4.57363 12 4.57629C11.532 4.57597 11.0649 4.61646 10.604 4.69729V4.69829ZM4.253 10.5733C4.93423 10.5561 5.61464 10.5151 6.293 10.4503C7.93264 10.3036 9.55828 10.0288 11.155 9.62829C10.3205 8.17851 9.41955 6.768 8.455 5.40129C7.42472 5.91169 6.51626 6.6377 5.79124 7.53008C5.06623 8.42246 4.54162 9.46033 4.253 10.5733ZM5.783 17.6113C6.171 17.0443 6.681 16.4063 7.358 15.7123C8.812 14.2223 10.528 13.0623 12.514 12.4223L12.576 12.4043C12.411 12.0403 12.256 11.7153 12.1 11.4093C10.264 11.9443 8.33 12.2783 6.403 12.4513C5.463 12.5363 4.62 12.5733 4 12.5793C3.99823 14.4119 4.62729 16.1891 5.783 17.6113ZM15.005 19.9913C14.6194 18.0465 14.0735 16.137 13.373 14.2823C11.371 15.0093 9.776 16.0723 8.543 17.3403C8.0454 17.8427 7.60382 18.3976 7.226 18.9953C8.60481 20.0241 10.2797 20.5787 12 20.5763C13.0299 20.5778 14.0504 20.3798 15.005 19.9933V19.9913ZM16.878 18.9163C18.4393 17.7161 19.5028 15.982 19.865 14.0463C19.525 13.9613 19.094 13.8763 18.62 13.8103C17.5661 13.6585 16.4968 13.6474 15.44 13.7773C16.0351 15.4561 16.5155 17.1724 16.878 18.9163ZM12 22.5763C6.477 22.5763 2 18.0993 2 12.5763C2 7.05329 6.477 2.57629 12 2.57629C17.523 2.57629 22 7.05329 22 12.5763C22 18.0993 17.523 22.5763 12 22.5763Z" fill="#0B5EB1"/>
</g>
<defs>
<clipPath id="clip0_232_157">
<rect width="24" height="24" fill="white" transform="translate(0 0.576294)"/>
</clipPath>
</defs>
</svg>
