<svg width="25" height="25" viewBox="0 0 25 25" fill="none" xmlns="http://www.w3.org/2000/svg">
<g clip-path="url(#clip0_227_140)">
<path d="M3.07997 3.72975L15.65 1.93475C15.7209 1.92458 15.7932 1.92977 15.862 1.94998C15.9307 1.97019 15.9943 2.00494 16.0485 2.05189C16.1026 2.09883 16.1461 2.15687 16.1758 2.22206C16.2056 2.28726 16.221 2.35809 16.221 2.42975V23.2758C16.221 23.3473 16.2056 23.4181 16.1759 23.4832C16.1462 23.5483 16.1029 23.6063 16.0488 23.6532C15.9948 23.7001 15.9313 23.7349 15.8627 23.7552C15.794 23.7755 15.7218 23.7808 15.651 23.7708L3.07897 21.9758C2.84059 21.9418 2.62246 21.823 2.46466 21.6411C2.30686 21.4592 2.21997 21.2265 2.21997 20.9858V4.71975C2.21997 4.47897 2.30686 4.24627 2.46466 4.0644C2.62246 3.88253 2.84159 3.76371 3.07997 3.72975ZM17.221 3.85275H21.221C21.4862 3.85275 21.7405 3.95811 21.9281 4.14565C22.1156 4.33318 22.221 4.58754 22.221 4.85275V20.8528C22.221 21.118 22.1156 21.3723 21.9281 21.5599C21.7405 21.7474 21.4862 21.8528 21.221 21.8528H17.221V3.85275ZM10.421 12.8528L13.221 8.85275H10.821L9.22097 11.1388L7.62097 8.85275H5.22097L8.02097 12.8528L5.22097 16.8528H7.62097L9.22097 14.5668L10.821 16.8528H13.221L10.421 12.8528Z" fill="#0B5EB1"/>
</g>
<defs>
<clipPath id="clip0_227_140">
<rect width="24" height="24" fill="white" transform="translate(0.220947 0.852783)"/>
</clipPath>
</defs>
</svg>
