<svg width="24" height="25" viewBox="0 0 24 25" fill="none" xmlns="http://www.w3.org/2000/svg">
<g clip-path="url(#clip0_38_4887)">
<path d="M17 6.70557H22V8.70557H20V21.7056C20 21.9708 19.8946 22.2251 19.7071 22.4127C19.5196 22.6002 19.2652 22.7056 19 22.7056H5C4.73478 22.7056 4.48043 22.6002 4.29289 22.4127C4.10536 22.2251 4 21.9708 4 21.7056V8.70557H2V6.70557H7V3.70557C7 3.44035 7.10536 3.186 7.29289 2.99846C7.48043 2.81092 7.73478 2.70557 8 2.70557H16C16.2652 2.70557 16.5196 2.81092 16.7071 2.99846C16.8946 3.186 17 3.44035 17 3.70557V6.70557ZM18 8.70557H6V20.7056H18V8.70557ZM9 4.70557V6.70557H15V4.70557H9Z" fill="#222222" fill-opacity="0.7"/>
</g>
<defs>
<clipPath id="clip0_38_4887">
<rect width="24" height="24" fill="white" transform="translate(0 0.705566)"/>
</clipPath>
</defs>
</svg>
