<svg width="24" height="25" viewBox="0 0 24 25" fill="none" xmlns="http://www.w3.org/2000/svg">
<g opacity="0.7" clip-path="url(#clip0_250_140)">
<path d="M5 19.7055H6.414L15.728 10.3915L14.314 8.97753L5 18.2915V19.7055ZM21 21.7055H3V17.4625L16.435 4.02753C16.6225 3.84006 16.8768 3.73474 17.142 3.73474C17.4072 3.73474 17.6615 3.84006 17.849 4.02753L20.678 6.85653C20.8655 7.04406 20.9708 7.29836 20.9708 7.56353C20.9708 7.82869 20.8655 8.083 20.678 8.27053L9.243 19.7055H21V21.7055ZM15.728 7.56353L17.142 8.97753L18.556 7.56353L17.142 6.14953L15.728 7.56353Z" fill="#222222"/>
</g>
<defs>
<clipPath id="clip0_250_140">
<rect width="24" height="24" fill="white" transform="translate(0 0.705566)"/>
</clipPath>
</defs>
</svg>
