<svg width="25" height="25" viewBox="0 0 25 25" fill="none" xmlns="http://www.w3.org/2000/svg">
<path d="M10.0682 16.1769L14.9228 16.1918C15.2255 16.1928 15.4705 16.4463 15.4705 16.7571V19.4881C15.4705 19.7999 15.2934 20.082 15.0175 20.2125L10.6108 22.2817C10.5078 22.3295 10.3987 22.3528 10.2896 22.3528C10.1444 22.3528 9.99921 22.3104 9.87256 22.2266C9.6512 22.0802 9.51735 21.8278 9.51735 21.5573V16.7422C9.51735 16.4293 9.76446 16.1759 10.0682 16.1769ZM20.6599 2.35278C21.8357 2.35278 22.7881 3.33384 22.7881 4.54504V6.07654C22.7881 6.66411 22.5585 7.22835 22.1508 7.63986L15.6457 14.2198C15.5335 14.3344 15.3811 14.398 15.2236 14.3969L9.77702 14.38C9.61125 14.38 9.45372 14.3089 9.34047 14.1848L3.3626 7.61016C2.99298 7.20395 2.78809 6.66729 2.78809 6.11048V4.5461C2.78809 3.3349 3.74047 2.35278 4.91627 2.35278H20.6599Z" fill="#222222"/>
</svg>
