<svg width="25" height="25" viewBox="0 0 25 25" fill="none" xmlns="http://www.w3.org/2000/svg">
<g clip-path="url(#clip0_259_128)">
<path d="M12.7463 22.4126C7.22334 22.4126 2.74634 17.9356 2.74634 12.4126C2.74634 6.8896 7.22334 2.4126 12.7463 2.4126C18.2693 2.4126 22.7463 6.8896 22.7463 12.4126C22.7463 17.9356 18.2693 22.4126 12.7463 22.4126ZM12.7463 20.4126C14.8681 20.4126 16.9029 19.5697 18.4032 18.0695C19.9035 16.5692 20.7463 14.5343 20.7463 12.4126C20.7463 10.2909 19.9035 8.25603 18.4032 6.75574C16.9029 5.25545 14.8681 4.4126 12.7463 4.4126C10.6246 4.4126 8.58977 5.25545 7.08948 6.75574C5.58919 8.25603 4.74634 10.2909 4.74634 12.4126C4.74634 14.5343 5.58919 16.5692 7.08948 18.0695C8.58977 19.5697 10.6246 20.4126 12.7463 20.4126ZM11.7463 7.4126H13.7463V9.4126H11.7463V7.4126ZM11.7463 11.4126H13.7463V17.4126H11.7463V11.4126Z" fill="#f5c6cb "/>
</g>
<defs>
<clipPath id="clip0_259_128">
<rect width="24" height="24" fill="white" transform="translate(0.746338 0.412598)"/>
</clipPath>
</defs>
</svg>
