<svg width="24" height="25" viewBox="0 0 24 25" fill="none" xmlns="http://www.w3.org/2000/svg">
<path d="M11.4927 2.57629C13.9753 2.57629 16 4.56629 16 7.01629V11.8063H9.89535C9.45785 11.8063 9.11192 12.1463 9.11192 12.5763C9.11192 12.9963 9.45785 13.3463 9.89535 13.3463H16V18.1263C16 20.5763 13.9753 22.5763 11.4724 22.5763H6.51744C4.02471 22.5763 2 20.5863 2 18.1363V7.02629C2 4.56629 4.03488 2.57629 6.52762 2.57629H11.4927ZM18.5402 9.12649C18.8402 8.81649 19.3302 8.81649 19.6302 9.11649L22.5502 12.0265C22.7002 12.1765 22.7802 12.3665 22.7802 12.5765C22.7802 12.7765 22.7002 12.9765 22.5502 13.1165L19.6302 16.0265C19.4802 16.1765 19.2802 16.2565 19.0902 16.2565C18.8902 16.2565 18.6902 16.1765 18.5402 16.0265C18.2402 15.7265 18.2402 15.2365 18.5402 14.9365L20.1402 13.3465L16 13.3463V11.8063L20.1402 11.8065L18.5402 10.2165C18.2402 9.91649 18.2402 9.42649 18.5402 9.12649Z" fill="#0B5EB1"/>
</svg>
