<svg width="212" height="43" viewBox="0 0 212 43" fill="none" xmlns="http://www.w3.org/2000/svg">
<path fill-rule="evenodd" clip-rule="evenodd" d="M13.817 12.6413C15.0129 11.9337 16.0307 11.5892 17.6544 11.3422C17.7984 11.3202 17.921 11.3155 17.921 11.332C17.921 11.34 17.7367 11.4609 17.5116 11.6006C15.1851 13.0443 13.4337 15.4472 12.7593 18.1203C12.5056 19.1261 12.4285 19.7774 12.4299 20.9042C12.4308 21.6722 12.426 21.7308 12.363 21.7308C12.2127 21.7308 11.5898 21.6069 11.109 21.4813C10.5106 21.325 10.0256 21.1496 9.45263 20.8822L9.03821 20.6888L9.06361 20.3262C9.28569 17.1539 11.0728 14.2648 13.817 12.6413ZM22.2396 14.1088C22.724 13.627 23.0627 13.3405 23.5723 12.9815C23.7418 12.8621 23.9033 12.7638 23.9311 12.763C23.959 12.7622 24.1303 12.8633 24.3119 12.9878C26.3082 14.3558 27.7142 16.3964 28.2803 18.7474C28.4785 19.5705 28.5244 19.9905 28.5253 20.9897C28.5267 22.4111 28.3442 23.3935 27.8475 24.6383L27.6504 25.1324L27.605 24.4715C27.5282 23.3531 27.3806 22.5526 27.0802 21.625C26.2152 18.9547 24.2821 16.6582 21.8241 15.3809C21.5728 15.2503 21.3606 15.1382 21.3524 15.1318C21.3178 15.1044 21.8145 14.5318 22.2396 14.1088ZM19.5981 18.9004C19.7722 18.0988 20.1849 16.9954 20.5627 16.321L20.7063 16.0648L21.1891 16.3159C23.7187 17.6319 25.524 19.9242 26.2018 22.681C26.4042 23.5037 26.4686 24.0644 26.4685 24.9993C26.4683 25.8299 26.4366 26.1715 26.2907 26.9149C26.2147 27.3021 26.1977 27.3433 26.0316 27.542C25.7327 27.8997 24.6759 28.8481 24.5118 28.9059C24.4946 28.912 24.4598 28.7529 24.4345 28.5524C24.2342 26.964 23.611 25.2998 22.7129 23.9542C22.2501 23.261 21.9482 22.8947 21.3317 22.2785C20.7659 21.7129 20.3025 21.3264 19.7163 20.9309L19.3601 20.6906L19.3859 20.3651C19.4235 19.8901 19.5044 19.3324 19.5981 18.9004ZM13.2024 22.9316C15.0036 23.0029 16.9711 22.575 18.5112 21.7769C18.6369 21.7118 18.7495 21.6577 18.7615 21.6567C18.7734 21.6557 18.9105 21.7423 19.0661 21.8492C20.142 22.5886 21.0502 23.5009 21.7478 24.543C22.0062 24.929 22.0992 25.101 22.0656 25.1305C22.0585 25.1367 21.9241 25.2274 21.767 25.3319C20.8358 25.9514 19.6805 26.4417 18.5538 26.6955C15.4425 27.3965 12.2247 26.5542 9.82661 24.411C9.56565 24.1778 9.55469 24.1607 9.45659 23.8344C9.40103 23.6495 9.3299 23.3955 9.2986 23.2701C9.2395 23.0333 9.08646 22.1386 9.08642 22.0298C9.08642 21.9787 9.1574 21.9969 9.4834 22.1313C10.7083 22.6365 11.8266 22.8772 13.2024 22.9316ZM18.2121 27.9064C19.6742 27.6594 21.0499 27.1314 22.2621 26.352C22.4401 26.2375 22.5976 26.1557 22.6121 26.1702C22.6554 26.2135 22.8916 26.8558 22.9992 27.2227C23.2056 27.927 23.3664 28.8769 23.3664 29.3928V29.6397L22.9655 29.8265C19.7835 31.3095 16.0826 30.9986 13.2181 29.0077C12.4784 28.4936 11.6605 27.7226 11.127 27.0364C10.9022 26.7473 10.7911 26.6083 10.8134 26.5818C10.8347 26.5565 10.9782 26.6342 11.2613 26.7821C13.4477 27.9238 15.8288 28.3089 18.2121 27.9064Z" fill="#222222"/>
<path d="M20.1486 11.5806C18.721 12.0727 17.5057 12.832 16.4348 13.9007C15.6433 14.6908 15.0547 15.5112 14.5697 16.5009C13.9528 17.7593 13.6709 18.8084 13.5728 20.2106C13.5433 20.633 13.5404 20.9928 13.5639 21.3128L13.5989 21.7879L13.8834 21.7992C14.2195 21.8126 15.0297 21.7247 15.5552 21.6178C16.3154 21.4632 17.0939 21.2052 17.7913 20.8766C18.2561 20.6576 18.2622 20.6501 18.2631 20.2981C18.2639 20.018 18.3643 19.2825 18.4748 18.7474C18.807 17.1392 19.5671 15.533 20.6241 14.2057C21.0323 13.6931 21.8276 12.8997 22.3382 12.4957C22.5581 12.3217 22.7381 12.1621 22.7381 12.1409C22.7381 12.0347 21.4966 11.6262 20.6437 11.4518C20.6018 11.4432 20.379 11.5012 20.1486 11.5806Z" fill="#222222"/>
<path d="M36.1174 24.206C36.1174 26.5197 37.5454 28.2731 40.4919 28.2731C43.1852 28.2731 44.8844 26.574 44.8844 24.2783V14.6617H41.956V24.0975C41.956 25.0013 41.5403 25.5617 40.4557 25.5617C39.335 25.5617 38.9373 24.9109 38.9373 24.206V23.266H36.1174V24.206ZM49.0531 28.0381L50.0112 25.2182H54.3314L55.2714 28.0381H58.3805L53.6264 14.6617H50.7704L45.9982 28.0381H49.0531ZM51.8188 19.9038C51.9815 19.4157 52.1261 18.9096 52.1803 18.6023C52.2345 18.9277 52.3972 19.4519 52.5418 19.9038L53.4999 22.7599H50.8607L51.8188 19.9038ZM62.7753 28.0381V24.2963C62.7753 22.8322 62.7572 21.7114 62.5945 20.7172L65.4145 28.0381H68.0897L70.9277 20.7172C70.7831 21.7114 70.7831 22.3441 70.7831 25.2363V28.0381H73.6211V14.6617H70.747L66.7521 24.6398L62.7753 14.6617H59.9373V28.0381H62.7753ZM81.8302 23.5914C84.5597 23.5914 86.3854 21.8018 86.3854 19.1265C86.3854 16.4512 84.5597 14.6617 81.8302 14.6617H76.4073V28.0381H79.3356V23.5914H81.8302ZM81.1794 17.2647C82.5894 17.2647 83.2943 17.8793 83.2943 19.1265C83.2943 20.3738 82.5894 20.9884 81.1794 20.9884H79.3356V17.2647H81.1794ZM89.2482 28.0381L90.2063 25.2182H94.5265L95.4665 28.0381H98.5756L93.8215 14.6617H90.9655L86.1933 28.0381H89.2482ZM92.0139 19.9038C92.1766 19.4157 92.3212 18.9096 92.3754 18.6023C92.4297 18.9277 92.5924 19.4519 92.737 19.9038L93.695 22.7599H91.0559L92.0139 19.9038ZM103.025 28.0381V19.5423L108.664 28.0381H111.557V14.6617H108.664V23.1756L103.025 14.6617H100.132V28.0381H103.025ZM120.362 17.1924C121.754 17.1924 122.983 17.8069 123.327 19.2169H126.4C126.092 16.3247 123.634 14.4447 120.435 14.4447C116.295 14.4447 113.602 17.355 113.602 21.3861C113.602 25.4894 116.223 28.237 119.965 28.237C121.555 28.237 123.001 27.6766 123.724 26.827L123.887 28.0381H126.4V20.3557H120.109V22.9225H123.652C123.526 24.3144 122.549 25.5075 120.344 25.5075C118.211 25.5075 116.693 24.1698 116.693 21.4764C116.693 18.8915 117.94 17.1924 120.362 17.1924Z" fill="#222222"/>
<path d="M135.146 27.0381L138.645 21.5429L135.261 16.2647H136.563L139.498 20.8633H139.108L142.029 16.2647H143.33L139.947 21.5429L143.461 27.0381H142.159L139.108 22.2371H139.498L136.418 27.0381H135.146Z" fill="#222222"/>
<path d="M152.518 23.0129C152.518 26.2124 154.669 28.2551 158.014 28.2551C161.376 28.2551 163.545 26.1944 163.545 23.0129V14.6617H160.617V22.8141C160.617 24.459 159.677 25.4171 158.014 25.4171C156.369 25.4171 155.447 24.4952 155.447 22.8141V14.6617H152.518V23.0129ZM167.515 28.0381L168.473 25.2182H172.793L173.733 28.0381H176.843L172.088 14.6617H169.232L164.46 28.0381H167.515ZM170.281 19.9038C170.443 19.4157 170.588 18.9096 170.642 18.6023C170.697 18.9277 170.859 19.4519 171.004 19.9038L171.962 22.7599H169.323L170.281 19.9038ZM178.399 28.0381H183.967C186.859 28.0381 188.45 26.7186 188.45 24.3506C188.45 22.8322 187.745 21.8018 186.425 21.368C187.636 20.8438 188.287 19.7953 188.287 18.3673C188.287 16.0716 186.66 14.6617 183.967 14.6617H178.399V28.0381ZM183.66 17.2285C184.726 17.2285 185.286 17.7166 185.286 18.6565C185.286 19.6146 184.708 20.1388 183.66 20.1388H181.328V17.2285H183.66ZM183.804 22.5972C184.871 22.5972 185.449 23.0852 185.449 23.989C185.449 24.9832 184.889 25.4713 183.804 25.4713H181.328V22.5972H183.804ZM193.864 28.0381H196.883L201.799 14.6617H198.744L196.25 21.4222C195.961 22.2176 195.708 22.9587 195.364 24.2421C195.075 23.0852 194.822 22.2537 194.515 21.4222L191.984 14.6617H188.857L193.864 28.0381Z" fill="#222222"/>
</svg>
