<svg width="24" height="25" viewBox="0 0 24 25" fill="none" xmlns="http://www.w3.org/2000/svg">
<g clip-path="url(#clip0_38_4618)">
<path d="M21 21.5763H13V6.57629C13 5.78064 13.3161 5.01758 13.8787 4.45497C14.4413 3.89236 15.2044 3.57629 16 3.57629H21C21.2652 3.57629 21.5196 3.68165 21.7071 3.86919C21.8946 4.05672 22 4.31108 22 4.57629V20.5763C22 20.8415 21.8946 21.0959 21.7071 21.2834C21.5196 21.4709 21.2652 21.5763 21 21.5763ZM11 21.5763H3C2.73478 21.5763 2.48043 21.4709 2.29289 21.2834C2.10536 21.0959 2 20.8415 2 20.5763V4.57629C2 4.31108 2.10536 4.05672 2.29289 3.86919C2.48043 3.68165 2.73478 3.57629 3 3.57629H8C8.79565 3.57629 9.55871 3.89236 10.1213 4.45497C10.6839 5.01758 11 5.78064 11 6.57629V21.5763ZM11 21.5763H13V23.5763H11V21.5763Z" fill="#0B5EB1"/>
</g>
<defs>
<clipPath id="clip0_38_4618">
<rect width="24" height="24" fill="white" transform="translate(0 0.576294)"/>
</clipPath>
</defs>
</svg>
