<svg width="24" height="25" viewBox="0 0 24 25" fill="none" xmlns="http://www.w3.org/2000/svg">
<path d="M16.191 2.57629C19.28 2.57629 21 4.35629 21 7.40629V17.7363C21 20.8363 19.28 22.5763 16.191 22.5763H7.81C4.77 22.5763 3 20.8363 3 17.7363V7.40629C3 4.35629 4.77 2.57629 7.81 2.57629H16.191ZM8.08 16.3163C7.78 16.2863 7.49 16.4263 7.33 16.6863C7.17 16.9363 7.17 17.2663 7.33 17.5263C7.49 17.7763 7.78 17.9263 8.08 17.8863H15.92C16.319 17.8463 16.62 17.5053 16.62 17.1063C16.62 16.6963 16.319 16.3563 15.92 16.3163H8.08ZM15.92 11.7553H8.08C7.649 11.7553 7.3 12.1063 7.3 12.5363C7.3 12.9663 7.649 13.3163 8.08 13.3163H15.92C16.35 13.3163 16.7 12.9663 16.7 12.5363C16.7 12.1063 16.35 11.7553 15.92 11.7553ZM11.069 7.22629H8.08V7.23629C7.649 7.23629 7.3 7.58629 7.3 8.01629C7.3 8.44629 7.649 8.79629 8.08 8.79629H11.069C11.5 8.79629 11.85 8.44629 11.85 8.00529C11.85 7.57629 11.5 7.22629 11.069 7.22629Z" fill="#0B5EB1"/>
</svg>
