<svg width="24" height="25" viewBox="0 0 24 25" fill="none" xmlns="http://www.w3.org/2000/svg">
<g clip-path="url(#clip0_38_4879)">
<path d="M11.9999 3.70557C17.3919 3.70557 21.8779 7.58557 22.8189 12.7056C21.8789 17.8256 17.3919 21.7056 11.9999 21.7056C6.60791 21.7056 2.12191 17.8256 1.18091 12.7056C2.12091 7.58557 6.60791 3.70557 11.9999 3.70557ZM11.9999 19.7056C14.0394 19.7051 16.0183 19.0124 17.6128 17.7407C19.2072 16.4691 20.3228 14.6938 20.7769 12.7056C20.3211 10.7189 19.2048 8.94557 17.6105 7.67559C16.0162 6.40561 14.0382 5.71409 11.9999 5.71409C9.96161 5.71409 7.9836 6.40561 6.38928 7.67559C4.79497 8.94557 3.67868 10.7189 3.22291 12.7056C3.677 14.6938 4.79258 16.4691 6.38705 17.7407C7.98152 19.0124 9.96044 19.7051 11.9999 19.7056ZM11.9999 17.2056C10.8064 17.2056 9.66184 16.7315 8.81793 15.8875C7.97401 15.0436 7.49991 13.899 7.49991 12.7056C7.49991 11.5121 7.97401 10.3675 8.81793 9.52359C9.66184 8.67967 10.8064 8.20557 11.9999 8.20557C13.1934 8.20557 14.338 8.67967 15.1819 9.52359C16.0258 10.3675 16.4999 11.5121 16.4999 12.7056C16.4999 13.899 16.0258 15.0436 15.1819 15.8875C14.338 16.7315 13.1934 17.2056 11.9999 17.2056ZM11.9999 15.2056C12.6629 15.2056 13.2988 14.9422 13.7677 14.4733C14.2365 14.0045 14.4999 13.3686 14.4999 12.7056C14.4999 12.0425 14.2365 11.4066 13.7677 10.9378C13.2988 10.469 12.6629 10.2056 11.9999 10.2056C11.3369 10.2056 10.701 10.469 10.2321 10.9378C9.7633 11.4066 9.49991 12.0425 9.49991 12.7056C9.49991 13.3686 9.7633 14.0045 10.2321 14.4733C10.701 14.9422 11.3369 15.2056 11.9999 15.2056Z" fill="#222222" fill-opacity="0.7"/>
</g>
<defs>
<clipPath id="clip0_38_4879">
<rect width="24" height="24" fill="white" transform="translate(0 0.705566)"/>
</clipPath>
</defs>
</svg>
