<svg width="25" height="25" viewBox="0 0 25 25" fill="none" xmlns="http://www.w3.org/2000/svg">
<path d="M18.1213 14.7676C17.8623 15.0186 17.7433 15.3816 17.8023 15.7376L18.6913 20.6576C18.7663 21.0746 18.5903 21.4966 18.2413 21.7376C17.8993 21.9876 17.4443 22.0176 17.0713 21.8176L12.6423 19.5076C12.4883 19.4256 12.3173 19.3816 12.1423 19.3766H11.8713C11.7773 19.3906 11.6853 19.4206 11.6013 19.4666L7.17127 21.7876C6.95227 21.8976 6.70427 21.9366 6.46127 21.8976C5.86927 21.7856 5.47427 21.2216 5.57127 20.6266L6.46127 15.7066C6.52027 15.3476 6.40127 14.9826 6.14227 14.7276L2.53127 11.2276C2.22927 10.9346 2.12427 10.4946 2.26227 10.0976C2.39627 9.70163 2.73827 9.41263 3.15127 9.34763L8.12127 8.62663C8.49927 8.58763 8.83127 8.35763 9.00127 8.01763L11.1913 3.52763C11.2433 3.42763 11.3103 3.33563 11.3913 3.25763L11.4813 3.18763C11.5283 3.13563 11.5823 3.09263 11.6423 3.05763L11.7513 3.01763L11.9213 2.94763H12.3423C12.7183 2.98663 13.0493 3.21163 13.2223 3.54763L15.4413 8.01763C15.6013 8.34463 15.9123 8.57163 16.2713 8.62663L21.2413 9.34763C21.6613 9.40763 22.0123 9.69763 22.1513 10.0976C22.2823 10.4986 22.1693 10.9386 21.8613 11.2276L18.1213 14.7676Z" fill="#0B5EB1"/>
</svg>
