<svg width="25" height="25" viewBox="0 0 25 25" fill="none" xmlns="http://www.w3.org/2000/svg">
<path d="M22.0128 13.2627C22.0848 13.3033 22.0992 13.3891 22.1021 13.4219L22.1028 13.4349L22.0228 18.5994C22.0228 20.6595 20.4266 22.3395 18.4167 22.4425L18.2209 22.4475H6.17487C4.13947 22.4475 2.47966 20.8319 2.37791 18.7976L2.37297 18.5994L2.30293 13.4349C2.30293 13.4349 2.30293 13.3134 2.39298 13.2627C2.47302 13.2121 2.57307 13.2729 2.58307 13.283C4.60408 14.64 7.0353 15.5412 9.58657 15.9159C9.94675 15.9665 10.3069 15.7336 10.407 15.3691C10.6133 14.5906 11.2506 14.0613 12.0301 13.9982L12.1879 13.9919H12.2179C13.0683 13.9919 13.7787 14.5387 13.9988 15.3691C14.0988 15.7336 14.459 15.9665 14.8192 15.9159C17.3705 15.5412 19.8017 14.64 21.8227 13.283C21.8227 13.283 21.8427 13.2729 21.8627 13.2627C21.9027 13.2425 21.9628 13.2324 22.0128 13.2627ZM12.1979 15.4399C11.8219 15.4399 11.5047 15.7293 11.4544 16.0973L11.4475 16.1994V17.5058C11.4475 17.9311 11.7877 18.2653 12.1979 18.2653C12.5831 18.2653 12.8926 17.9845 12.9415 17.6101L12.9483 17.5058V16.1994C12.9483 15.7843 12.6181 15.4399 12.1979 15.4399ZM13.4885 2.44751C14.9893 2.44751 16.2199 3.59181 16.41 5.06015H18.391C20.492 5.06015 22.2029 6.79179 22.2029 8.91836C22.2029 8.91836 22.1429 9.81861 22.1228 11.0723C22.1208 11.1715 22.0728 11.2687 21.9938 11.3275C21.5125 11.6829 21.0723 11.9766 21.0323 11.9968C19.3715 13.1107 17.4415 13.8945 15.3855 14.2844C15.2514 14.3107 15.1193 14.2409 15.0513 14.1214C14.475 13.1229 13.3985 12.4728 12.1979 12.4728C11.0053 12.4728 9.91874 13.1158 9.32544 14.1153C9.25641 14.2328 9.12634 14.3006 8.99328 14.2753C6.95426 13.8844 5.02429 13.1016 3.37347 12.007L2.41299 11.3386C2.33295 11.288 2.28292 11.1968 2.28292 11.0956C2.25291 10.5791 2.20288 8.91836 2.20288 8.91836C2.20288 6.79179 3.91374 5.06015 6.01479 5.06015H7.98577C8.17587 3.59181 9.40648 2.44751 10.9072 2.44751H13.4885ZM13.4885 3.96649H10.9072C10.2369 3.96649 9.66661 4.43231 9.50653 5.06015H14.8892C14.7291 4.43231 14.1589 3.96649 13.4885 3.96649Z" fill="#0B5EB1"/>
</svg>
